<?xml version="1.0" standalone="no"?>
<!DOCTYPE svg PUBLIC "-//W3C//DTD SVG 20010904//EN"
 "http://www.w3.org/TR/2001/REC-SVG-20010904/DTD/svg10.dtd">
<svg version="1.0" xmlns="http://www.w3.org/2000/svg"
 width="293.000000pt" height="293.000000pt" viewBox="0 0 293.000000 293.000000"
 preserveAspectRatio="xMidYMid meet">
<metadata>
Created by potrace 1.11, written by Peter Selinger 2001-2013
</metadata>
<g transform="translate(0.000000,293.000000) scale(0.100000,-0.100000)"
fill="#000000" stroke="none">
<path d="M1640 2166 c0 -8 -13 -24 -30 -36 -16 -12 -30 -28 -30 -35 0 -8 -22
-35 -50 -61 -27 -25 -54 -61 -60 -79 -11 -34 -76 -96 -154 -147 -22 -15 -47
-32 -54 -38 -16 -14 -129 44 -137 70 -3 9 -16 27 -29 39 -20 19 -28 21 -65 12
-24 -5 -44 -11 -45 -13 -26 -42 -91 -120 -107 -128 -11 -7 -42 -18 -69 -26
-36 -11 -71 -35 -137 -95 -90 -82 -207 -166 -299 -212 -28 -14 -78 -48 -111
-74 -75 -60 -188 -163 -180 -163 6 0 241 139 297 175 19 13 55 29 80 35 25 7
65 27 89 45 24 19 63 42 86 51 25 9 45 24 48 35 3 11 21 26 41 34 20 9 36 19
36 23 0 13 104 82 122 82 24 0 2 -65 -32 -93 -34 -29 -69 -80 -100 -143 l-25
-51 40 14 c22 7 49 20 61 28 31 20 67 82 61 105 -5 20 3 25 33 20 19 -3 20 -3
25 -30 2 -12 -3 -32 -11 -45 -17 -26 -21 -72 -10 -130 6 -37 3 -45 -33 -94
-40 -53 -81 -101 -150 -173 -19 -21 -30 -38 -24 -38 6 0 82 53 169 118 88 65
183 131 212 147 31 17 52 35 52 45 0 10 9 29 20 42 10 14 18 27 16 29 -2 2 -6
19 -9 37 -4 27 1 40 29 75 57 70 105 136 107 144 2 13 81 82 94 83 20 0 70 49
87 85 9 19 20 35 24 35 23 -1 31 -21 30 -75 0 -33 2 -82 4 -110 5 -61 -2 -83
-46 -141 -19 -25 -37 -58 -41 -74 -3 -16 -21 -40 -41 -55 -24 -19 -34 -34 -34
-54 0 -15 3 -30 6 -33 10 -10 265 62 303 86 49 31 96 39 112 20 7 -9 20 -12
33 -9 17 5 18 4 6 -4 -8 -6 -12 -11 -7 -12 26 -5 35 -4 57 6 14 7 30 10 37 8
6 -2 14 1 18 6 4 8 12 8 27 0 11 -6 29 -9 39 -6 10 3 19 1 19 -3 0 -5 18 -11
40 -15 28 -5 51 -18 75 -43 l34 -36 100 -2 c56 -2 125 -9 153 -18 65 -18 180
-96 286 -193 81 -74 152 -123 152 -105 0 12 -127 141 -210 213 -36 31 -90 78
-121 105 -61 53 -126 80 -222 93 -65 9 -63 7 -138 131 -43 73 -59 90 -108 118
-77 44 -110 73 -114 97 -4 30 -26 65 -40 65 -24 0 -79 59 -81 87 -1 16 -14 65
-30 110 -25 74 -32 86 -76 118 -49 36 -100 47 -100 21z m220 -376 c0 -5 -4
-10 -10 -10 -5 0 -10 5 -10 10 0 6 5 10 10 10 6 0 10 -4 10 -10z m60 0 c0 -5
-2 -10 -4 -10 -3 0 -8 5 -11 10 -3 6 -1 10 4 10 6 0 11 -4 11 -10z m26 -25 c1
-8 -2 -13 -7 -9 -5 3 -9 12 -9 21 0 19 13 9 16 -12z m-51 5 c-3 -5 -12 -10
-18 -10 -7 0 -6 4 3 10 19 12 23 12 15 0z m-245 -24 c0 -3 -4 -8 -10 -11 -5
-3 -10 -1 -10 4 0 6 5 11 10 11 6 0 10 -2 10 -4z m-320 -10 c0 -3 -4 -8 -10
-11 -5 -3 -10 -1 -10 4 0 6 5 11 10 11 6 0 10 -2 10 -4z m546 -31 c3 -17 -12
-20 -21 -5 -7 12 4 34 13 25 3 -3 7 -12 8 -20z m-606 -21 c0 -8 -5 -12 -10 -9
-6 4 -8 11 -5 16 9 14 15 11 15 -7z m685 6 c3 -6 -1 -7 -9 -4 -18 7 -21 14 -7
14 6 0 13 -4 16 -10z m75 -191 c0 -6 -4 -7 -10 -4 -5 3 -10 11 -10 16 0 6 5 7
10 4 6 -3 10 -11 10 -16z m-178 -34 c3 3 5 -2 5 -10 0 -10 -4 -12 -12 -5 -7 5
-15 7 -18 3 -4 -3 -13 -1 -20 5 -8 7 -17 9 -20 5 -4 -3 -7 1 -7 10 0 14 4 15
34 2 18 -8 36 -12 38 -10z m101 -20 c-3 -9 -8 -14 -10 -11 -3 3 -2 9 2 15 9
16 15 13 8 -4z m-293 -29 c0 -2 -7 -7 -16 -10 -8 -3 -12 -2 -9 4 6 10 25 14
25 6z"/>
</g>
</svg>
