<?xml version="1.0" standalone="no"?>
<!DOCTYPE svg PUBLIC "-//W3C//DTD SVG 20010904//EN"
 "http://www.w3.org/TR/2001/REC-SVG-20010904/DTD/svg10.dtd">
<svg version="1.0" xmlns="http://www.w3.org/2000/svg"
 width="95.000000pt" height="95.000000pt" viewBox="0 0 95.000000 95.000000"
 preserveAspectRatio="xMidYMid meet">
<metadata>
Created by potrace 1.11, written by Peter Selinger 2001-2013
</metadata>
<g transform="translate(0.000000,95.000000) scale(0.100000,-0.100000)"
fill="#000000" stroke="none">
<path d="M362 905 c-183 -88 -305 -210 -336 -339 -7 -27 -6 -28 21 -20 35 11
130 11 164 1 25 -8 26 -7 31 35 7 63 57 159 137 266 38 50 66 92 63 92 -4 0
-40 -16 -80 -35z"/>
<path d="M525 929 c78 -47 148 -183 175 -342 10 -56 15 -66 26 -56 21 17 102
19 147 3 22 -8 42 -14 44 -14 11 0 -11 84 -34 132 -37 78 -150 184 -248 234
-78 41 -157 71 -110 43z"/>
<path d="M422 868 c-101 -128 -152 -230 -152 -305 l0 -33 33 13 c17 8 50 17
72 21 22 4 48 9 58 12 16 5 17 -7 17 -160 0 -153 -2 -168 -20 -186 -40 -40
-108 -11 -112 48 0 15 -1 34 -2 42 -1 9 -13 16 -28 18 -26 3 -26 2 -23 -43 5
-55 31 -105 66 -123 34 -18 105 -9 133 17 35 33 42 73 41 234 l0 149 43 -7
c24 -4 64 -15 89 -26 53 -23 54 -23 48 -6 -2 6 -6 31 -9 55 -12 98 -47 186
-103 259 -40 53 -72 82 -90 83 -6 0 -34 -28 -61 -62z"/>
</g>
</svg>
